<svg width="40" height="40" viewBox="0 0 40 40" fill="none" xmlns="http://www.w3.org/2000/svg">
<circle cx="20" cy="13.3333" r="4.5" stroke="#FF0A0A" stroke-linecap="round"/>
<path d="M22.6579 10.6666C23.0205 10.0386 23.5612 9.53219 24.2116 9.21145C24.862 8.8907 25.5929 8.77002 26.3119 8.86468C27.0309 8.95934 27.7057 9.26508 28.2509 9.74323C28.7962 10.2214 29.1874 10.8505 29.3751 11.551C29.5628 12.2515 29.5385 12.9919 29.3054 13.6786C29.0723 14.3653 28.6408 14.9675 28.0655 15.4089C27.4901 15.8504 26.7968 16.1114 26.0731 16.1588C25.3495 16.2062 24.628 16.038 24 15.6754" stroke="#FF0A0A"/>
<path d="M17.3421 10.6666C16.9795 10.0386 16.4388 9.53219 15.7884 9.21145C15.138 8.8907 14.4071 8.77002 13.6881 8.86468C12.9691 8.95934 12.2943 9.26508 11.7491 9.74323C11.2038 10.2214 10.8126 10.8505 10.6249 11.551C10.4372 12.2515 10.4615 12.9919 10.6946 13.6786C10.9277 14.3653 11.3592 14.9675 11.9345 15.4089C12.5099 15.8504 13.2032 16.1114 13.9269 16.1588C14.6505 16.2062 15.372 16.038 16 15.6754" stroke="#FF0A0A"/>
<path d="M20 20.8333C27.3777 20.8333 28.8175 27.311 29.0985 29.8393C29.1595 30.3883 28.7189 30.8333 28.1667 30.8333H11.8333C11.281 30.8333 10.8405 30.3883 10.9015 29.8393C11.1825 27.311 12.6223 20.8333 20 20.8333Z" stroke="#FF0A0A" stroke-linecap="round"/>
<path d="M25.8332 19.167V18.667H25.8332L25.8332 19.167ZM32.3234 26.4121L32.8135 26.3129L32.8135 26.3129L32.3234 26.4121ZM28.634 27.5L28.1537 27.639L28.2581 28H28.634V27.5ZM21.8137 20.9775L21.4444 20.6404L20.8241 21.3198L21.7316 21.4708L21.8137 20.9775ZM25.8332 19.167V19.667C27.8683 19.667 29.2389 20.7782 30.1809 22.2167C31.1312 23.6678 31.6098 25.4068 31.8334 26.5113L32.3234 26.4121L32.8135 26.3129C32.58 25.1593 32.0698 23.2758 31.0175 21.6688C29.9568 20.0493 28.3108 18.667 25.8332 18.667V19.167ZM32.3234 26.4121L31.8334 26.5113C31.8821 26.7523 31.7008 27 31.3947 27V27.5V28C32.2719 28 32.9994 27.2316 32.8135 26.3129L32.3234 26.4121ZM31.3947 27.5V27H28.634V27.5V28H31.3947V27.5ZM28.634 27.5L29.1143 27.361C28.3455 24.7041 26.4608 21.2439 21.8957 20.4843L21.8137 20.9775L21.7316 21.4708C25.7473 22.1389 27.4339 25.1514 28.1537 27.639L28.634 27.5ZM21.8137 20.9775L22.1829 21.3147C23.0688 20.3445 24.2423 19.667 25.8332 19.667L25.8332 19.167L25.8332 18.667C23.9137 18.667 22.4851 19.5007 21.4444 20.6404L21.8137 20.9775Z" fill="#FF0A0A"/>
<path d="M14.1666 19.167V18.667H14.1665L14.1666 19.167ZM18.1851 20.9775L18.2672 21.4707L19.1747 21.3196L18.5543 20.6403L18.1851 20.9775ZM11.3658 27.5V28H11.7416L11.8461 27.639L11.3658 27.5ZM7.67632 26.4121L7.18626 26.3129L7.18626 26.3129L7.67632 26.4121ZM14.1666 19.167V19.667C15.757 19.667 16.9299 20.3447 17.8159 21.3147L18.1851 20.9775L18.5543 20.6403C17.5137 19.5011 16.0859 18.667 14.1666 18.667V19.167ZM18.1851 20.9775L18.103 20.4843C13.5388 21.2443 11.6542 24.7043 10.8855 27.361L11.3658 27.5L11.8461 27.639C12.5658 25.1516 14.2524 22.1393 18.2672 21.4707L18.1851 20.9775ZM11.3658 27.5V27H8.60503V27.5V28H11.3658V27.5ZM8.60503 27.5V27C8.29899 27 8.1176 26.7523 8.16638 26.5113L7.67632 26.4121L7.18626 26.3129C7.00031 27.2316 7.72784 28 8.60503 28V27.5ZM7.67632 26.4121L8.16638 26.5113C8.38995 25.4068 8.86857 23.6678 9.81888 22.2167C10.7609 20.7783 12.1314 19.667 14.1666 19.667L14.1666 19.167L14.1665 18.667C11.689 18.667 10.043 20.0493 8.98231 21.6689C7.92993 23.2758 7.41977 25.1593 7.18626 26.3129L7.67632 26.4121Z" fill="#FF0A0A"/>
</svg>
