<svg width="40" height="40" viewBox="0 0 40 40" fill="none" xmlns="http://www.w3.org/2000/svg">
<path d="M30.8333 20C30.8333 25.9831 25.983 30.8334 20 30.8334C14.0169 30.8334 9.16663 25.9831 9.16663 20C9.16663 10.4488 19.0494 4.69869 19.9365 4.20179C19.9804 4.17714 20.0195 4.17715 20.0635 4.20179C20.9506 4.6987 30.8333 10.4488 30.8333 20Z" stroke="#FF0A0A" stroke-linejoin="round"/>
<path d="M25.8335 20.0002L26.3335 20.0132V20.0002L25.8335 20.0002ZM25.8257 20.3L26.3252 20.3253L26.3255 20.313L25.8257 20.3ZM19.9995 25.8332L19.9995 26.3332H19.9995V25.8332ZM14.1743 20.3L13.6743 20.313L13.675 20.3253L14.1743 20.3ZM14.1665 20.0002L13.6663 20.0002L13.6667 20.0132L14.1665 20.0002ZM20.083 10.8946L20.3822 10.494L20.083 10.8946ZM19.9155 10.895L20.2148 11.2955L19.9155 10.895ZM20.083 10.8946L19.7838 11.2952C20.1247 11.5498 21.5275 12.6375 22.8404 14.2235C24.1621 15.8203 25.3335 17.8509 25.3335 20.0002L25.8335 20.0002L26.3335 20.0002C26.3335 17.5033 24.986 15.2473 23.6107 13.5859C22.2265 11.9137 20.7541 10.7717 20.3822 10.494L20.083 10.8946ZM25.8335 20.0002L25.3337 19.9872L25.3259 20.287L25.8257 20.3L26.3255 20.313L26.3333 20.0132L25.8335 20.0002ZM25.8257 20.3L25.3263 20.2747C25.1835 23.0922 22.8529 25.3332 19.9995 25.3332V25.8332V26.3332C23.3881 26.3332 26.1554 23.6721 26.325 20.3253L25.8257 20.3ZM19.9995 25.8332L19.9995 25.3332C17.1464 25.333 14.8165 23.0921 14.6737 20.2747L14.1743 20.3L13.675 20.3253C13.8446 23.6719 16.611 26.333 19.9995 26.3332L19.9995 25.8332ZM14.1743 20.3L14.6741 20.287L14.6663 19.9872L14.1665 20.0002L13.6667 20.0132L13.6745 20.313L14.1743 20.3ZM14.1665 20.0002L14.6665 20.0002C14.6665 17.8514 15.837 15.8214 17.1582 14.2248C18.4704 12.639 19.8728 11.551 20.2148 11.2955L19.9155 10.895L19.6163 10.4944C19.2433 10.7731 17.7712 11.9153 16.3877 13.5873C15.0131 15.2486 13.6665 17.504 13.6665 20.0002L14.1665 20.0002ZM20.083 10.8946L20.3822 10.494C20.1512 10.3215 19.843 10.325 19.6163 10.4944L19.9155 10.895L20.2148 11.2955C20.159 11.3372 20.0847 11.3657 20.0009 11.366C19.9168 11.3663 19.8411 11.338 19.7838 11.2952L20.083 10.8946Z" fill="#FF0A0A"/>
<path d="M20 35V20" stroke="#FF0A0A"/>
<circle cx="20" cy="20" r="1.66667" fill="#FF0A0A"/>
</svg>
